# xmcd CD database file
#
# Track frame offsets:
#	150
#	21825
#	44250
#	65025
#	87087
#	107547
#	124572
#	146880
#	168612
#	188635
#	208057
#	225257
#
# Disc length: 3080 seconds
#
# Revision: 0
# Processed by: cddbd v1.5.1PL0 Copyright (c) Steve Scherf et al.
# Submitted via: CDex 1.51
#
DISCID=a00c060c
DTITLE=Philip Riley and Jayne Elleson - The Blessing Tree
DYEAR=1900
DGENRE=New Age
TTITLE0=Come Silver Moon
TTITLE1=Breton Drum
TTITLE2=Pictish Girl
TTITLE3=The Chalice
TTITLE4=Between the Shadows
TTITLE5=When I Dream
TTITLE6=Spin the Circle
TTITLE7=Benediction
TTITLE8=Sanctus
TTITLE9=Slow Runs My Heart
TTITLE10=Coventry Lullaby
TTITLE11=And Soon the Day Will Fade Away
EXTD=
EXTT0=
EXTT1=
EXTT2=
EXTT3=
EXTT4=
EXTT5=
EXTT6=
EXTT7=
EXTT8=
EXTT9=
EXTT10=
EXTT11=
PLAYORDER=
